<svg id="Layer_1" data-name="Layer 1" xmlns="http://www.w3.org/2000/svg" viewBox="0 0 1122.02 392.45">
  <defs>
    <style>
      .cls-1 {
        fill: #fff;
      }
    </style>
  </defs>
  <path class="cls-1" d="M314,200.13c4.11,57.54,86.87,57.2,90.99,0l699.56-.05c5.81,2.95,10.32,5.92,17.01,6.99l.45,13.36c-8.35,4.84-10.03,14.38-14.68,21.55l-36.34-.84.44,13.07c1.35,1.94,6.52.32,8.9,1.1,3.41,1.12,5.26,17.07-1.78,17.9-5.17.61-18.92.6-24.11,0-7.04-.81-5.19-16.78-1.78-17.9,2.39-.78,7.55.85,8.9-1.1l.44-13.06h-33v14c2.89.3,8.93-1.24,10.5,2,1.25,2.58,1.56,14.69-2.21,15.8-2.55.75-21.48.68-24.84.25-5.99-.77-5.71-12.44-3.96-16.05,1.58-3.24,7.62-1.69,10.51-1.99-.38-3.62.52-8.07,0-11.54-.23-1.54.61-1.53-1.52-1.51-5.13.06-28.88,4.92-31.01,9.02-.72,1.38-.91,2.53.5,3.55,2.43,1.63,8.72-1.25,10.53,2.47,1.21,2.48,1.28,14.16-1.5,15.51-1.8.88-23.31.93-26.56.55-1.46-.17-2.57-.12-3.45-1.55v-15c0-.35,2.01-1.58,1.98-2-.04-.69-2.21-1.17-2.66-1.8-9.38-13.08-20.11-19.3-35.82-23.7l-392.84,4.96c-2.37.55-1.45,10.03-1.79,12.41-4.69,33.05-23.28,69.14-52.58,86.42-44.03,25.96-73.68-.34-116.92-5.66-75.69-9.31-99.06,34.26-162.41,55.33-37.92,12.62-79.7,14.44-116.64-2.29C21.48,350.93,2.59,264.76,0,200.13h314ZM1030.68,210.44c-7.93-8.69-22.11,5.05-12.65,13.15,8.55,7.32,20.09-5,12.65-13.15ZM1063.76,213.36c-11.27,2.9-5.08,23.11,7.16,16.18,8.87-5.03,3.29-18.87-7.16-16.18ZM977.77,218.3c-12.05,1.54-8.96,19.66,2.65,17.81,10.82-1.72,8.87-19.28-2.65-17.81Z"/>
  <path class="cls-1" d="M158,192.13h-17V6.63c0-.29,2.49-4.5,3.03-4.97,4.4-3.74,13.97-.76,13.97,4.97v185.5Z"/>
  <path class="cls-1" d="M125,192.13h-17V9.63c0-3.71,7.01-6.14,10.46-5.49,2.44.46,6.54,5.38,6.54,7.49v180.5Z"/>
  <path class="cls-1" d="M191,192.13h-16V8.63c0-1.91,6.1-4.67,8.48-4.57,2.61.11,7.52,3.12,7.52,5.57v182.5Z"/>
  <path class="cls-1" d="M225,192.13h-17V20.63c0-3.71,7.01-6.14,10.46-5.49,2.44.46,6.54,5.38,6.54,7.49v169.5Z"/>
  <path class="cls-1" d="M91,192.13h-16V19.63c0-.28,3.5-3.74,4.02-3.98,3.88-1.78,11.98.91,11.98,4.98v171.5Z"/>
  <path class="cls-1" d="M258,192.13h-17V39.63c0-2.4,5.66-6.56,8.5-6.56s8.5,4.16,8.5,6.56v152.5Z"/>
  <path class="cls-1" d="M41,50.63c1.08-6.13,10.34-8.57,14.72-4.23.24.24,2.28,3.99,2.28,4.23v141.5h-17V50.63Z"/>
  <path class="cls-1" d="M458,192.13h-17V57.63c0-2.52,5.71-6.36,8.5-6.36s8.5,3.84,8.5,6.36v134.5Z"/>
  <path class="cls-1" d="M425,192.13h-17V60.63c0-2.58,6.58-5.65,9.27-5.31,3.32.42,7.73,5.19,7.73,8.31v128.5Z"/>
  <path class="cls-1" d="M275,56.63c1.13-5.34,9.01-6.69,13.26-3.52.43.32,2.74,3.3,2.74,3.52v135.5h-16V56.63Z"/>
  <path class="cls-1" d="M341,72.63c1.06-5.99,9.5-8.81,14.27-4.54.59.52,2.73,4.28,2.73,4.54v119.5h-17v-119.5Z"/>
  <path class="cls-1" d="M325,192.13h-17v-120.5c0-.78,2.62-3.82,3.61-4.39,5.77-3.31,13.39,1.23,13.39,7.39v117.5Z"/>
  <path class="cls-1" d="M491,192.13h-16v-124.5c0-4.32,9.04-5.69,12.57-3.57.68.41,3.43,4.12,3.43,4.57v123.5Z"/>
  <path class="cls-1" d="M391,192.13h-16v-121.5c0-1.91,6.1-4.67,8.48-4.57,2.61.11,7.52,3.12,7.52,5.57v120.5Z"/>
  <path class="cls-1" d="M508,192.13v-83.5c0-.78,2.62-3.82,3.61-4.39,5.75-3.3,12.09.46,13.16,6.62-1.71,24.41,3.08,54.01.29,77.81-.17,1.46-.12,2.57-1.55,3.45h-15.5Z"/>
  <path class="cls-1" d="M1110,192.13h-17v-65.5c0-3.32,5.05-7.36,8.5-7.36,2.79,0,8.5,3.84,8.5,6.36v66.5Z"/>
  <path class="cls-1" d="M1049,192.13h-17v-66.5c0-2.46,5.77-6.45,8.52-6.39,3.1.07,8.48,4.26,8.48,7.39v65.5Z"/>
  <path class="cls-1" d="M25,192.13H8v-67.5c0-1.47,6.01-5.33,8.35-5.2,3.89.21,8.65,4.4,8.65,8.2v64.5Z"/>
  <path class="cls-1" d="M971,192.13v-67.5c0-2.66,6.2-5.43,9.04-5.08,5.43.67,6.99,4.47,7.7,9.34,1.68,11.59,1.7,47.98.31,59.79-.17,1.46-.12,2.57-1.55,3.45h-15.5Z"/>
  <path class="cls-1" d="M957,192.13h-17v-47.5c0-3.71,4.8-6.72,8.48-6.57,2.85.12,8.52,4.07,8.52,6.57v47.5Z"/>
  <path class="cls-1" d="M1079,192.13h-15.5c-1.43-.88-1.38-1.99-1.55-3.45-.77-6.55-.69-23.44.05-30.05.6-5.36,3.19-10.87,9.44-10.46,2.14.14,7.56,3.32,7.56,5.46v38.5Z"/>
  <path class="cls-1" d="M1018,192.13h-17v-36.5c0-3.32,5.05-7.36,8.5-7.36,2.79,0,8.5,3.84,8.5,6.36v37.5Z"/>
  <path class="cls-1" d="M559,192.13h-17v-26.5c0-4.59,9.88-7.45,13.97-3.97.55.46,3.03,4.68,3.03,4.97v25.5Z"/>
  <path class="cls-1" d="M620,192.13h-17v-25.5c0-.29,2.49-4.5,3.03-4.97,4.09-3.48,13.97-.63,13.97,3.97v26.5Z"/>
  <path class="cls-1" d="M712,192.13h-17v-25.5c0-5.48,8.1-7.97,12.77-5.76.92.43,4.23,4.44,4.23,4.76v26.5Z"/>
  <path class="cls-1" d="M804,192.13h-17v-26.5c0-4.59,9.88-7.45,13.97-3.97.55.46,3.03,4.68,3.03,4.97v25.5Z"/>
  <path class="cls-1" d="M865,192.13h-17v-25.5c0-.29,2.49-4.5,3.03-4.97,4.09-3.48,13.97-.63,13.97,3.97v26.5Z"/>
  <path class="cls-1" d="M773,192.13h-17v-24.5c0-.3,2.09-4.97,2.53-5.47,3.84-4.4,14.47-1.15,14.47,3.47v26.5Z"/>
  <path class="cls-1" d="M726,192.13v-27.5c0-.28,3.54-3.77,4.02-3.98,4.26-1.82,9.13-.5,11.4,3.56,2.01,3.61,2.37,21.13,1.58,25.41-.21,1.12-.51,1.87-1.5,2.5h-15.5Z"/>
  <path class="cls-1" d="M634,165.63c1.24-5.82,11.72-7.63,15.04-2.78,2.37,3.48,2.77,22.36,1.96,26.78-.2,1.12-.51,1.87-1.5,2.5h-15.5c1.11-7.61-1.5-19.48,0-26.5Z"/>
  <path class="cls-1" d="M879,165.63c1.24-5.82,11.72-7.63,15.04-2.78,2.37,3.48,2.77,22.36,1.96,26.78-.2,1.12-.51,1.87-1.5,2.5h-15.5c1.11-7.61-1.5-19.48,0-26.5Z"/>
  <path class="cls-1" d="M589,192.13h-16v-27.5c0-1.73,5.2-4.5,7.48-4.6,2.62-.11,8.52,2.37,8.52,4.6v27.5Z"/>
  <path class="cls-1" d="M834,192.13h-16v-27.5c0-1.73,5.2-4.5,7.48-4.6,2.62-.11,8.52,2.37,8.52,4.6v27.5Z"/>
  <path class="cls-1" d="M926,192.13h-16v-27.5c0-6.48,16-5.5,16,1v26.5Z"/>
  <path class="cls-1" d="M681,192.13h-16v-27.5c0-.28,3.5-3.74,4.02-3.98,3.46-1.59,11.98,1.04,11.98,3.98v27.5Z"/>
</svg>